# xmcd CD database file
#
# Track frame offsets:
#	150
#	22580
#	38672
#	62985
#	81502
#	109775
#	128537
#	145200
#	171825
#	189375
#	202635
#	212095
#	234827
#	262257
#
# Disc length: 3829 seconds
#
# Revision: 0
# Processed by: cddbd v1.5.1PL0 Copyright (c) Steve Scherf et al.
# Submitted via: CDex 1.51
#
DISCID=b80ef30e
DTITLE=シティ・ポップ - I love you
DYEAR=1900
DGENRE=JPop
TTITLE0=Every's Valentine
TTITLE1=Oh my love
TTITLE2=I LOVE YOU
TTITLE3=たしかな愛
TTITLE4=My Dear
TTITLE5=恋の余韻
TTITLE6=I LOVE YOU SO
TTITLE7=愛の中へ
TTITLE8=愛を止めないで
TTITLE9=愛のファウンテン
TTITLE10=I Love You
TTITLE11=愛してるのに
TTITLE12=今日より永遠に
TTITLE13=乾杯
EXTD=
EXTT0=
EXTT1=
EXTT2=
EXTT3=
EXTT4=
EXTT5=
EXTT6=
EXTT7=
EXTT8=
EXTT9=
EXTT10=
EXTT11=
EXTT12=
EXTT13=
PLAYORDER=
